<svg version="1.1" viewBox="0 0 950 950" xmlns="http://www.w3.org/2000/svg" xmlns:xlink="http://www.w3.org/1999/xlink"><defs><linearGradient id="b" x2="1" gradientTransform="matrix(-1272.8 1792.1 -1792.1 -1272.8 1965.6 1313.2)" gradientUnits="userSpaceOnUse" xlink:href="#a"/><linearGradient id="a" x2="1" gradientTransform="matrix(-954.57 -1344.1 -1344.1 954.57 2718.3 2351.8)" gradientUnits="userSpaceOnUse"><stop stop-color="#fff" offset="0"/><stop stop-color="#fff" offset=".368"/><stop stop-color="#6900ff" offset=".71"/><stop stop-color="#6900ff" offset="1"/></linearGradient><linearGradient id="c" x1="-.241" x2="1" y1="-.132" gradientTransform="matrix(-360.43 707.08 -707.08 -360.43 1220 2400.1)" gradientUnits="userSpaceOnUse" xlink:href="#a"><stop stop-color="#fff" offset="0"/><stop stop-color="#fff" offset=".408"/><stop stop-color="#6900ff" offset=".802"/><stop stop-color="#6900ff" offset="1"/></linearGradient></defs><g transform="matrix(.99987 0 0 .99987 -696.66 -1929)"><path d="m1005.6 1982.7c-155.84 0-282.17 126.33-282.17 282.17v614.57h614.57c39.812 0 77.691-8.2704 112.09-23.191 100.11-43.29 170.08-142.93 170.08-258.97v-614.57z" fill="#fff" opacity=".5" stroke-width="1.3333"/><path d="m1025.6 2036.5c-137.15 0-248.31 111.16-248.31 248.31v193.88l0.068 0.205c0.476 2.042 4.287 16.328 14.353 37.892 40.892 78.61 183.07 292.87 625.06 288.45 88.099-38.096 149.67-125.79 149.67-227.9v-540.84z" fill="url(#b)"/><path d="m777.91 2824.9v-341.45c1.799 5.973 5.765 17.72 13.152 33.543 40.377 86.861 180.81 288.89 611.7 288.9h0.024c3.52 0 7.05-0.013 10.605-0.04-30.24 12.639-62.288 19.045-95.307 19.045z" fill="#fff"/><path d="m777.24 2478.7v346.94h540.83c35.034 0 68.368-7.2799 98.64-20.409a1402.6 1402.6 0 0 1-13.961 0.071c-431.02 0-571.04-202.35-611.08-288.51-10.068-21.566-13.877-35.851-14.354-37.892zm1.3333 9.1544c2.1773 6.6038 5.9185 16.736 11.88 29.503 40.432 86.978 181.04 289.29 612.29 289.29 2.3786 0 4.7812-0.01 7.1864-0.019-29.223 11.742-60.092 17.69-91.866 17.69h-539.49z" fill="#fff" stroke-width="1.3333"/><path d="m791.67 2516.8c42.473 89.661 209.81 327.47 625.06 288.45-244.91 4.288-256.54-153.07-215.12-233.65-224.36 32.956-381.04 6.965-424.36-92.9 0.476 2.043 4.233 16.589 14.423 38.097" fill="url(#c)"/><path d="m1465.8 1982.7c0 14.751 0.8 32.135 0.8 52.084 0 52.869-5.687 97.451-15.503 97.451" fill="none" opacity=".56" stroke="#7717ff" stroke-miterlimit="10" stroke-opacity=".3" stroke-width="13.333"/><path d="m1498.2 2135.1c0 18.82-15.256 34.077-34.076 34.077-18.821 0-34.077-15.257-34.077-34.077s15.256-34.076 34.077-34.076c18.82 0 34.076 15.256 34.076 34.076" fill="#fff"/><path d="m1270.8 2420.5h-77.857v76.071h-57.724v-76.071h-77.409v-54.588h77.409v-76.071h57.724v76.071h77.857z" opacity=".22"/><path d="m1290.3 2401.6h-77.857v76.071h-57.724v-76.071h-77.411v-54.588h77.411v-76.071h57.724v76.071h77.857z" fill="#fff"/><path d="m1448.7 1982.7c0-28.623 8.89-45.765 15.361-45.765 9.816 0 17.773 42.859 17.773 95.728 0 52.871-7.957 95.729-17.773 95.729" fill="none" stroke="#fff" stroke-miterlimit="10" stroke-width="15.245"/></g></svg>
